<svg width="80" height="81" viewBox="0 0 80 81" fill="none" xmlns="http://www.w3.org/2000/svg">
<g clip-path="url(#clip0_308_242)">
<path fill-rule="evenodd" clip-rule="evenodd" d="M75 40.5C75 49.7826 71.3125 58.685 64.7487 65.2487C58.185 71.8125 49.2826 75.5 40 75.5C30.7174 75.5 21.815 71.8125 15.2513 65.2487C8.68749 58.685 5 49.7826 5 40.5C5 31.2174 8.68749 22.315 15.2513 15.7513C21.815 9.18749 30.7174 5.5 40 5.5C49.2826 5.5 58.185 9.18749 64.7487 15.7513C71.3125 22.315 75 31.2174 75 40.5ZM0 40.5C0 51.1087 4.21427 61.2828 11.7157 68.7843C19.2172 76.2857 29.3913 80.5 40 80.5C50.6087 80.5 60.7828 76.2857 68.2843 68.7843C75.7857 61.2828 80 51.1087 80 40.5C80 29.8913 75.7857 19.7172 68.2843 12.2157C60.7828 4.71427 50.6087 0.5 40 0.5C29.3913 0.5 19.2172 4.71427 11.7157 12.2157C4.21427 19.7172 0 29.8913 0 40.5ZM29.52 54.515C29.2894 54.7538 29.0135 54.9442 28.7085 55.0753C28.4035 55.2063 28.0754 55.2752 27.7435 55.2781C27.4116 55.281 27.0824 55.2178 26.7751 55.0921C26.4679 54.9664 26.1887 54.7807 25.954 54.546C25.7193 54.3113 25.5336 54.0321 25.4079 53.7249C25.2822 53.4176 25.219 53.0884 25.2219 52.7565C25.2248 52.4246 25.2937 52.0965 25.4247 51.7915C25.5558 51.4865 25.7462 51.2106 25.985 50.98L36.225 40.74L46.465 30.5H32.625C31.962 30.5 31.3261 30.2366 30.8572 29.7678C30.3884 29.2989 30.125 28.663 30.125 28C30.125 27.337 30.3884 26.7011 30.8572 26.2322C31.3261 25.7634 31.962 25.5 32.625 25.5H52.5C53.163 25.5 53.7989 25.7634 54.2678 26.2322C54.7366 26.7011 55 27.337 55 28V47.875C55 48.538 54.7366 49.1739 54.2678 49.6428C53.7989 50.1116 53.163 50.375 52.5 50.375C51.837 50.375 51.2011 50.1116 50.7322 49.6428C50.2634 49.1739 50 48.538 50 47.875V34.035L39.76 44.275L29.52 54.515Z" fill="#E9E9E9"/>
</g>
<defs>
<clipPath id="clip0_308_242">
<rect width="80" height="80" fill="white" transform="matrix(-1 0 0 1 80 0.5)"/>
</clipPath>
</defs>
</svg>
